<svg xmlns="http://www.w3.org/2000/svg" viewBox="0 0 48 48" aria-hidden="true">
  <path fill="#fff" d="M24 4C13.5 4 5 12.5 5 23c0 3.3.9 6.4 2.4 9.1L5 43l11.1-2.3A18.9 18.9 0 0 0 24 42c10.5 0 19-8.5 19-19S34.5 4 24 4z"/>
  <path fill="#fff" d="M24 6.5c9.1 0 16.5 7.4 16.5 16.5S33.1 39.5 24 39.5a16.4 16.4 0 0 1-8.2-2.2l-.6-.3-6.5 1.3 1.3-6.3-.4-.7A16.4 16.4 0 0 1 7.5 23C7.5 13.9 14.9 6.5 24 6.5z"/>
  <path fill="#25D366" d="M24 4c-10.5 0-19 8.5-19 19 0 3.3.9 6.4 2.4 9.1L5 43l11.1-2.3A18.9 18.9 0 0 0 24 42c10.5 0 19-8.5 19-19S34.5 4 24 4zm-4.8 25.1c-.4 0-.9-.1-1.4-.3-1.2-.5-5.8-2.7-5.8-7.5 0-4.7 3.6-7.1 4.1-7.6.5-.5 1.1-.6 1.5-.6.4 0 .7 0 1 .1.3 0 .7-.1 1.1.8.4 1 .9 2.3 1 2.4.1.1.1.3 0 .4-.1.2-.2.3-.3.5-.1.1-.2.3-.3.4-.1.1-.2.2-.1.4.1.2.5.8 1.1 1.3 1.5 1.3 2.7 1.7 3.1 1.9.4.2.6.2.8-.1.2-.3.9-1.1 1.1-1.5.2-.4.4-.3.8-.2.4.1 2.5 1.2 2.9 1.4.4.2.7.3.8.5.1.2.1 1.1-.2 2.1-.4 1.1-2.2 2.1-3 2.2-.8.1-1.5.1-2.1 0z"/>
  <path fill="#fff" d="M19.2 29.1c-.4 0-.9-.1-1.4-.3-1.2-.5-5.8-2.7-5.8-7.5 0-4.7 3.6-7.1 4.1-7.6.5-.5 1.1-.6 1.5-.6.4 0 .7 0 1 .1.3 0 .7-.1 1.1.8.4 1 .9 2.3 1 2.4.1.1.1.3 0 .4-.1.2-.2.3-.3.5-.1.1-.2.3-.3.4-.1.1-.2.2-.1.4.1.2.5.8 1.1 1.3 1.5 1.3 2.7 1.7 3.1 1.9.4.2.6.2.8-.1.2-.3.9-1.1 1.1-1.5.2-.4.4-.3.8-.2.4.1 2.5 1.2 2.9 1.4.4.2.7.3.8.5.1.2.1 1.1-.2 2.1-.4 1.1-2.2 2.1-3 2.2-.8.1-1.5.1-2.1 0z"/>
</svg>
